HIERARCHY
ROOT Hips
{
	OFFSET 0.0000 0.0000 0.0000
	CHANNELS 6 Xposition Yposition Zposition Zrotation Xrotation Yrotation
	JOINT Ab
	{
		OFFSET -0.0000 8.1305 -0.0000
		CHANNELS 3 Zrotation Xrotation Yrotation
		JOINT Chest
		{
			OFFSET -0.0000 26.2902 -0.0000
			CHANNELS 3 Zrotation Xrotation Yrotation
			JOINT Neck
			{
				OFFSET -0.0000 26.2902 0.0000
				CHANNELS 3 Zrotation Xrotation Yrotation
				JOINT Head
				{
					OFFSET -0.0000 10.8167 0.0000
					CHANNELS 3 Zrotation Xrotation Yrotation
					End Site
					{
						OFFSET -0.0000 16.7167 0.0000
					}
				}
			}
			JOINT LeftCollar
			{
				OFFSET -0.0000 26.2902 0.0000
				CHANNELS 3 Zrotation Xrotation Yrotation
				JOINT LeftShoulder
				{
					OFFSET 19.6667 -0.0000 0.0000
					CHANNELS 3 Zrotation Xrotation Yrotation
					JOINT LeftElbow
					{
						OFFSET 27.2190 0.0000 0.0000
						CHANNELS 3 Zrotation Xrotation Yrotation
						JOINT LeftWrist
						{
							OFFSET 30.7431 0.0000 0.0000
							CHANNELS 3 Zrotation Xrotation Yrotation
							End Site
							{
								OFFSET 0.0000 -14.7500 0.0000
							}
						}
					}
				}
			}
			JOINT RightCollar
			{
				OFFSET -0.0000 26.2902 0.0000
				CHANNELS 3 Zrotation Xrotation Yrotation
				JOINT RightShoulder
				{
					OFFSET -19.6667 0.0000 0.0000
					CHANNELS 3 Zrotation Xrotation Yrotation
					JOINT RightElbow
					{
						OFFSET -27.2190 0.0000 0.0000
						CHANNELS 3 Zrotation Xrotation Yrotation
						JOINT RightWrist
						{
							OFFSET -30.7431 0.0000 0.0000
							CHANNELS 3 Zrotation Xrotation Yrotation
							End Site
							{
								OFFSET -0.0000 -14.7500 0.0000
							}
						}
					}
				}
			}
		}
	}
	JOINT LeftHip
	{
		OFFSET 11.8000 0.0000 0.0000
		CHANNELS 3 Zrotation Xrotation Yrotation
		JOINT LeftKnee
		{
			OFFSET -0.0000 -39.7832 0.0000
			CHANNELS 3 Zrotation Xrotation Yrotation
			JOINT LeftAnkle
			{
				OFFSET -0.0000 -41.7317 0.0000
				CHANNELS 3 Zrotation Xrotation Yrotation
				End Site
				{
					OFFSET -0.0000 -4.9167 16.7167
				}
			}
		}
	}
	JOINT RightHip
	{
		OFFSET -11.8000 0.0000 0.0000
		CHANNELS 3 Zrotation Xrotation Yrotation
		JOINT RightKnee
		{
			OFFSET -0.0000 -39.7832 0.0000
			CHANNELS 3 Zrotation Xrotation Yrotation
			JOINT RightAnkle
			{
				OFFSET -0.0000 -41.7317 0.0000
				CHANNELS 3 Zrotation Xrotation Yrotation
				End Site
				{
					OFFSET -0.0000 -4.9167 16.7167
				}
			}
		}
	}
}
MOTION
Frames: 19
Frame Time: 0.010000
-5.1246 90.0399 67.2137 358.7549 356.7266 176.8123 356.2822 351.1343 359.2313 2.2275 12.3453 359.2806 357.3815 354.7125 2.8888 354.8395 9.4548 3.4324 337.6802 357.1489 14.5254 335.4119 55.0350 326.3642 17.4908 351.1626 307.1915 89.3981 355.8853 349.1868 27.2563 356.2996 344.7716 46.1780 38.6932 355.6010 341.5990 354.1627 35.0210 272.6374 356.1660 10.6500 353.5065 357.3439 1.2436 356.3642 15.5436 356.4745 3.5693 348.2089 21.7736 353.8050 344.6720 1.1857 21.4581 55.2284 0.7777 356.3727 339.8798 324.1961 
-5.0945 90.0636 66.4142 358.9073 356.8190 176.9697 356.4486 351.1982 359.0723 2.2352 12.3960 359.0993 357.5633 354.8839 2.9743 354.7254 9.4464 3.5141 337.7443 357.1481 14.5040 336.0404 55.0123 325.5726 17.6858 351.0420 306.9680 89.3531 355.7472 349.0164 27.1716 356.2864 344.6010 46.1931 38.4944 355.6698 341.3461 354.0087 35.2050 272.5141 356.0834 10.3506 353.6661 358.2597 1.1978 356.3384 14.9969 356.4802 3.3358 348.0066 21.8343 353.9181 343.7541 1.3201 20.9159 53.9738 1.2635 355.9881 339.5068 323.8254 
-5.0573 90.0784 65.6069 359.0658 356.9290 177.1151 356.5110 351.4657 359.0412 2.4424 12.0843 359.0436 357.5642 355.4133 2.9911 354.7443 9.1365 3.5034 337.6859 357.1236 14.5147 336.6698 55.1464 324.8563 17.8007 350.9755 306.7592 89.4482 355.7151 348.9777 27.1291 356.2578 344.4604 46.1270 38.2409 355.4533 341.2152 353.9406 35.4394 272.4092 356.0496 10.1560 353.8474 359.2088 1.2594 356.3260 14.4613 356.7604 2.8938 347.7827 21.4411 354.0461 342.9329 1.4780 20.3521 52.5563 1.7116 355.6671 339.1672 323.4823 
-5.0120 90.0827 64.7892 359.2113 357.0522 177.2192 356.6282 351.6243 358.9805 2.5246 11.9877 358.9624 357.7239 355.7297 3.0136 354.6599 8.9833 3.5118 337.6990 357.1407 14.4519 337.2945 55.1846 324.1172 17.9192 350.8805 306.5369 89.6467 355.8018 349.1944 27.2063 356.2088 344.4172 46.0199 37.7980 355.2080 341.1946 353.9033 35.7464 272.3168 356.0163 10.0594 354.0625 0.2672 1.1567 356.1901 13.7408 357.1666 2.8651 347.7526 21.0707 354.1899 342.1869 1.6741 19.7384 51.0117 2.1260 355.5287 338.8490 323.0571 
-4.9690 90.0612 64.0050 359.3282 357.0591 177.3438 356.8445 351.6689 358.8552 2.4268 11.9169 358.8274 357.8396 355.9417 3.0841 354.6766 8.9239 3.5715 337.7887 357.1597 14.4320 337.7746 55.1260 323.4835 18.0578 350.7623 306.3217 89.7181 355.8445 349.2752 27.3432 356.1775 344.4327 45.9277 37.4159 354.9609 341.1662 353.8382 36.0749 272.2774 356.0255 10.0355 354.2317 1.1350 1.0880 356.1187 13.1286 357.1952 3.0056 347.7309 21.0413 354.2906 341.3322 1.8291 19.1525 49.4185 2.5385 355.5258 338.3889 322.5371 
-4.9276 90.0267 63.2277 359.4309 357.0818 177.4415 356.9185 351.6881 358.7889 2.5485 11.9862 358.7433 357.9255 355.9173 3.1854 354.6127 8.9979 3.6792 337.7439 357.1422 14.4896 338.4762 55.0445 322.6435 18.1804 350.6768 306.1531 89.4805 355.7758 349.1705 27.3257 356.1738 344.4249 45.8360 37.2153 354.9662 341.0350 353.7447 36.2375 272.3079 355.9906 9.9097 354.3699 1.9828 1.1220 356.0953 12.6076 356.9062 3.0154 347.6188 21.3144 354.3867 340.4609 1.9894 18.5053 47.7676 2.9639 355.7360 337.9781 322.0929 
-4.8800 89.9858 62.4482 359.5150 357.1148 177.5072 357.0366 351.7427 358.7295 2.5667 11.9842 358.6745 357.9352 355.9681 3.2240 354.6953 9.0542 3.7090 337.7719 357.1466 14.4684 338.8717 54.9826 322.0939 18.3459 350.5626 306.0060 89.4535 355.7557 349.2051 27.4052 356.1734 344.4619 45.7451 36.9689 354.8871 340.9753 353.6917 36.3583 272.3109 355.9963 9.8329 354.4984 2.8499 1.2289 356.0773 12.0709 356.6411 3.2813 347.5298 21.3215 354.4927 339.6931 2.0866 17.6857 45.9863 3.4288 356.0847 337.8543 321.8292 
-4.8431 89.9280 61.6720 359.5694 357.1147 177.5798 357.1793 351.7686 358.6608 2.5211 11.9759 358.5969 357.9608 356.0264 3.2636 354.7487 9.0796 3.7375 337.8041 357.1370 14.4739 339.2654 54.8881 321.5616 18.4861 350.4602 305.8607 89.3952 355.7564 349.2568 27.5045 356.1813 344.4822 45.6304 36.8255 354.8737 340.8932 353.6433 36.4140 272.2700 355.9818 9.6902 354.5877 3.6923 1.2880 356.0603 11.5116 356.3606 3.4630 347.5054 21.3949 354.5394 338.9815 2.1048 16.8538 44.1350 3.8328 356.1234 337.8341 321.6597 
-4.8044 89.8580 60.8952 359.6003 357.1036 177.6535 357.2248 351.7817 358.6169 2.5875 11.9711 358.5430 358.0249 356.1719 3.3217 354.7181 8.9611 3.7968 337.7430 357.1208 14.4445 339.6167 54.7493 321.1647 18.5258 350.4106 305.6780 89.5188 355.7928 349.3810 27.5275 356.1867 344.4797 45.5918 36.8176 354.9243 340.7248 353.5816 36.3451 272.3103 355.8212 9.4722 354.6615 4.5316 1.3590 356.0312 10.9184 356.2363 3.5661 347.5171 21.3091 354.5502 338.3188 2.1181 16.1773 42.1116 3.7883 355.8766 337.9061 321.7215 
-4.7616 89.7774 60.1181 359.6080 357.0902 177.7320 357.0923 351.7637 358.6463 2.8829 12.1042 358.5521 358.1449 355.8114 3.3516 354.5888 9.3668 3.8609 337.6311 357.1036 14.4400 340.2179 54.6528 320.4270 18.5987 350.3525 305.5839 89.6989 355.7897 349.5785 27.3999 356.1837 344.3596 45.6014 36.9041 355.1391 340.4712 353.4949 36.2061 272.2885 355.8165 9.1224 354.7181 5.3615 1.4648 356.0136 10.3307 356.2637 3.7629 347.5451 21.0358 354.5435 337.6864 2.1445 15.6536 40.0746 3.3696 355.9376 337.8779 322.0541 
-4.7199 89.6811 59.3417 359.5970 357.0488 177.8093 356.9669 351.7246 358.6607 3.1428 12.1940 358.5432 358.2926 355.6997 3.3011 354.4320 9.4472 3.8182 337.5485 357.1074 14.3798 340.7656 54.6508 319.7056 18.7566 350.2680 305.5994 89.5834 355.7434 349.7147 27.3031 356.1755 344.2319 45.6833 37.0062 355.2722 340.2525 353.4397 36.0537 272.2184 355.9398 8.8965 354.7557 6.1666 1.5346 355.9860 9.7457 356.2522 3.9010 347.5470 20.8588 354.5329 337.1060 2.0504 14.9368 38.1334 3.6237 356.2772 337.7635 322.1329 
-4.6848 89.5715 58.5606 359.5683 357.0053 177.9130 356.9766 351.6776 358.5931 3.2005 12.2644 358.4633 358.4510 355.6777 3.2979 354.2766 9.4266 3.8241 337.5119 357.1311 14.2846 341.0298 54.5074 319.3553 18.8250 350.2426 305.5231 89.4837 355.7457 349.8208 27.3493 356.1664 344.2406 45.6526 36.9678 355.3030 340.1668 353.4538 35.9755 272.2031 355.9613 8.7304 354.7708 6.9763 1.5157 355.9551 9.1503 356.2468 3.6037 347.4531 20.7706 354.4550 336.5974 2.0589 14.3703 35.9048 3.8531 356.3578 337.9348 322.0181 
-4.6538 89.4518 57.7735 359.5161 356.9593 178.0194 356.9663 351.6264 358.5537 3.2696 12.3492 358.4178 358.5593 355.3833 3.3889 354.1398 9.8218 3.9465 337.4471 357.1443 14.2523 341.2631 54.3555 319.0381 18.8731 350.1928 305.4844 89.5696 355.7541 349.9560 27.4015 356.1519 344.2812 45.5203 37.0209 355.4255 340.1020 353.4770 35.8409 272.2172 355.9752 8.6272 354.7612 7.7818 1.5070 355.9351 8.5734 356.2617 3.2935 347.3904 20.6218 354.3512 336.1504 2.1050 13.8536 33.4820 4.1743 356.3640 338.2117 321.9248 
-4.6118 89.3196 56.9843 359.4644 356.8969 178.1325 356.9553 351.5690 358.5140 3.3356 12.4375 358.3667 358.5397 355.2737 3.4007 354.1677 9.8219 3.9565 337.4111 357.1462 14.2523 341.5174 54.2432 318.6723 18.9300 350.1537 305.4939 89.7255 355.7481 350.1009 27.4125 356.1375 344.2799 45.4627 37.1445 355.5982 340.0072 353.4714 35.6513 272.2577 355.9895 8.6734 354.7697 8.5399 1.5806 355.9207 8.0678 356.1851 3.0484 347.3024 20.4691 354.2955 335.8026 2.1507 13.3040 31.0329 4.4642 356.5242 338.5743 322.0451 
-4.5692 89.1775 56.1986 359.3974 356.8073 178.2779 356.9319 351.4905 358.4664 3.3988 12.5283 358.3052 358.5503 355.1452 3.3934 354.1571 9.8202 3.9511 337.4037 357.1427 14.2265 341.7184 54.2069 318.3404 19.0445 350.0978 305.5701 89.8170 355.7245 350.2202 27.4911 356.1371 344.3609 45.3676 37.0715 355.6680 340.0079 353.5138 35.5563 272.1955 355.9406 8.6561 354.7662 9.2173 1.6773 355.9245 7.6637 355.9782 2.8799 347.2088 20.4051 354.2251 335.4971 2.2390 12.8164 28.5580 4.7201 356.6541 339.0044 322.0694 
-4.5267 89.0282 55.4097 359.3118 356.6982 178.4416 356.9100 351.4117 358.4123 3.4276 12.5743 358.2546 358.5286 355.0744 3.3684 354.2027 9.7682 3.9214 337.3880 357.1389 14.1852 341.8406 54.1754 318.1366 19.1090 350.0799 305.6425 89.8169 355.7458 350.2299 27.5907 356.1310 344.3898 45.2432 37.1321 355.8257 340.0087 353.5429 35.3860 272.1684 356.0049 8.7501 354.7540 9.8271 1.7897 355.9291 7.3525 355.7276 2.8690 347.1555 20.3682 354.1300 335.2649 2.3178 12.2043 25.9947 5.4618 357.2282 339.3143 321.9485 
-4.4868 88.8746 54.6125 359.1881 356.5836 178.6033 356.8672 351.3079 358.3631 3.4337 12.6458 358.2112 358.4887 354.9819 3.3495 354.2535 9.7167 3.8983 337.3816 357.1379 14.1634 341.9692 54.1643 317.9062 19.1628 350.0808 305.7938 89.9743 355.7541 350.2811 27.6765 356.1230 344.4268 45.1601 37.2551 355.9803 339.9600 353.5525 35.2036 272.2467 355.9627 8.7362 354.7018 10.3847 1.9658 355.9528 7.1429 355.3987 2.9495 347.1186 20.3833 353.9977 335.1221 2.4594 11.5945 23.2910 6.0305 357.5061 339.7976 322.0816 
-4.4454 88.7132 53.8018 359.0431 356.4728 178.7893 356.7663 351.2305 358.3433 3.5176 12.6884 358.1987 358.3999 354.8022 3.2853 354.2769 9.7758 3.8412 337.3204 357.1473 14.1173 342.1288 54.1869 317.7027 19.1811 350.1165 305.9295 90.1145 355.8191 350.3445 27.8028 356.0920 344.4313 44.8985 37.2983 356.1586 340.0259 353.6316 35.0995 272.1742 356.0012 8.7722 354.6328 10.9169 2.0836 355.9689 6.9598 355.5740 2.5158 346.9624 19.9243 353.8319 335.0713 2.7554 11.0953 20.5698 6.4823 357.8739 340.0874 322.1970 
-4.4003 88.5450 52.9899 358.8994 356.3753 179.0166 356.6630 351.1935 358.3223 3.6025 12.7166 358.1742 358.3462 354.5364 3.1915 354.3230 9.9323 3.7568 337.2680 357.1514 14.0488 342.2954 54.2403 317.4815 19.2016 350.1420 306.1002 90.0042 355.8032 350.3250 27.8845 356.0744 344.3210 44.7658 37.4517 356.4174 339.9848 353.6384 34.9094 272.1583 356.0723 8.7455 354.5682 11.4199 2.2123 356.0057 6.8602 355.6483 2.0274 346.7826 19.5080 353.6742 335.0700 3.1683 10.6495 18.0171 6.5741 357.9225 340.3758 322.6314 
